<mxfile host="Electron" modified="2024-05-06T19:52:19.685Z" agent="Mozilla/5.0 (X11; Linux x86_64) AppleWebKit/537.36 (KHTML, like Gecko) draw.io/24.2.5 Chrome/120.0.6099.109 Electron/28.1.0 Safari/537.36" etag="eaxRqe12hqNoubMmomLO" version="24.2.5" type="device">
  <diagram id="C5RBs43oDa-KdzZeNtuy" name="Page-1">
    <mxGraphModel dx="1562" dy="1037" grid="1" gridSize="10" guides="1" tooltips="1" connect="1" arrows="1" fold="1" page="1" pageScale="1" pageWidth="1169" pageHeight="827" math="0" shadow="0">
      <root>
        <mxCell id="WIyWlLk6GJQsqaUBKTNV-0" />
        <mxCell id="WIyWlLk6GJQsqaUBKTNV-1" parent="WIyWlLk6GJQsqaUBKTNV-0" />
        <mxCell id="ce1c28iE4nzaZj0vCjUd-42" value="" style="endArrow=none;html=1;rounded=0;" parent="WIyWlLk6GJQsqaUBKTNV-1" target="ce1c28iE4nzaZj0vCjUd-40" edge="1">
          <mxGeometry width="50" height="50" relative="1" as="geometry">
            <mxPoint x="380" y="400" as="sourcePoint" />
            <mxPoint x="180" y="660" as="targetPoint" />
          </mxGeometry>
        </mxCell>
        <mxCell id="Wa4zjlMW-Ga0Yt3BIg9S-1" value="Состояние связи пользователей" style="text;html=1;strokeColor=none;fillColor=none;align=left;verticalAlign=middle;whiteSpace=wrap;rounded=0;fontSize=16;spacing=10;" parent="WIyWlLk6GJQsqaUBKTNV-1" vertex="1">
          <mxGeometry width="320" height="40" as="geometry" />
        </mxCell>
        <mxCell id="Wa4zjlMW-Ga0Yt3BIg9S-23" value="Нет" style="endArrow=classic;html=1;rounded=0;entryX=0.5;entryY=0;entryDx=0;entryDy=0;" parent="WIyWlLk6GJQsqaUBKTNV-1" source="Wa4zjlMW-Ga0Yt3BIg9S-39" target="Wa4zjlMW-Ga0Yt3BIg9S-70" edge="1">
          <mxGeometry x="-0.25" relative="1" as="geometry">
            <mxPoint x="179" y="440" as="sourcePoint" />
            <mxPoint x="439" y="320" as="targetPoint" />
            <mxPoint as="offset" />
          </mxGeometry>
        </mxCell>
        <mxCell id="Wa4zjlMW-Ga0Yt3BIg9S-39" value="Получатель &lt;br&gt;заблокировал&lt;br&gt;инициатора?" style="rhombus;whiteSpace=wrap;html=1;" parent="WIyWlLk6GJQsqaUBKTNV-1" vertex="1">
          <mxGeometry x="359" y="120" width="160" height="80" as="geometry" />
        </mxCell>
        <mxCell id="Wa4zjlMW-Ga0Yt3BIg9S-64" value="Принять&lt;br style=&quot;border-color: var(--border-color);&quot;&gt;запрос" style="endArrow=classic;html=1;rounded=0;" parent="WIyWlLk6GJQsqaUBKTNV-1" source="Wa4zjlMW-Ga0Yt3BIg9S-70" target="ce1c28iE4nzaZj0vCjUd-6" edge="1">
          <mxGeometry x="0.0244" y="-2" width="50" height="50" relative="1" as="geometry">
            <mxPoint x="839" y="240" as="sourcePoint" />
            <mxPoint x="359" y="400" as="targetPoint" />
            <mxPoint y="1" as="offset" />
          </mxGeometry>
        </mxCell>
        <mxCell id="Wa4zjlMW-Ga0Yt3BIg9S-69" value="" style="endArrow=classic;html=1;rounded=0;" parent="WIyWlLk6GJQsqaUBKTNV-1" source="Wa4zjlMW-Ga0Yt3BIg9S-70" target="ce1c28iE4nzaZj0vCjUd-8" edge="1">
          <mxGeometry x="0.0244" y="2" width="50" height="50" relative="1" as="geometry">
            <mxPoint x="729" y="240" as="sourcePoint" />
            <mxPoint x="519" y="400" as="targetPoint" />
            <mxPoint y="1" as="offset" />
          </mxGeometry>
        </mxCell>
        <mxCell id="ce1c28iE4nzaZj0vCjUd-27" value="Отказать" style="edgeLabel;html=1;align=center;verticalAlign=middle;resizable=0;points=[];" parent="Wa4zjlMW-Ga0Yt3BIg9S-69" vertex="1" connectable="0">
          <mxGeometry x="0.0146" y="-2" relative="1" as="geometry">
            <mxPoint x="-7" y="-12" as="offset" />
          </mxGeometry>
        </mxCell>
        <mxCell id="Wa4zjlMW-Ga0Yt3BIg9S-70" value="Запрос:&amp;nbsp;Ожидание ответа" style="rounded=1;whiteSpace=wrap;html=1;fillColor=#dae8fc;strokeColor=#6c8ebf;" parent="WIyWlLk6GJQsqaUBKTNV-1" vertex="1">
          <mxGeometry x="359" y="280" width="160" height="40" as="geometry" />
        </mxCell>
        <mxCell id="ce1c28iE4nzaZj0vCjUd-6" value="Запрос:&amp;nbsp;Подтвержден" style="rounded=1;whiteSpace=wrap;html=1;fillColor=#dae8fc;strokeColor=#6c8ebf;" parent="WIyWlLk6GJQsqaUBKTNV-1" vertex="1">
          <mxGeometry x="239" y="480" width="160" height="40" as="geometry" />
        </mxCell>
        <mxCell id="ce1c28iE4nzaZj0vCjUd-8" value="Запрос: Отказан" style="rounded=1;whiteSpace=wrap;html=1;fillColor=#dae8fc;strokeColor=#6c8ebf;" parent="WIyWlLk6GJQsqaUBKTNV-1" vertex="1">
          <mxGeometry x="519" y="480" width="160" height="40" as="geometry" />
        </mxCell>
        <mxCell id="ce1c28iE4nzaZj0vCjUd-9" value="Отправить&lt;br&gt;запрос" style="endArrow=classic;html=1;rounded=0;entryX=0.5;entryY=0;entryDx=0;entryDy=0;" parent="WIyWlLk6GJQsqaUBKTNV-1" target="Wa4zjlMW-Ga0Yt3BIg9S-39" edge="1">
          <mxGeometry x="0.0244" y="-2" width="50" height="50" relative="1" as="geometry">
            <mxPoint x="439" y="40" as="sourcePoint" />
            <mxPoint x="349" y="90" as="targetPoint" />
            <mxPoint y="1" as="offset" />
          </mxGeometry>
        </mxCell>
        <mxCell id="ce1c28iE4nzaZj0vCjUd-11" value="Заблокировать&lt;br&gt;пользователя" style="endArrow=classic;html=1;rounded=0;" parent="WIyWlLk6GJQsqaUBKTNV-1" target="ce1c28iE4nzaZj0vCjUd-37" edge="1">
          <mxGeometry width="50" height="50" relative="1" as="geometry">
            <mxPoint x="202" y="580" as="sourcePoint" />
            <mxPoint x="200" y="640" as="targetPoint" />
            <mxPoint as="offset" />
          </mxGeometry>
        </mxCell>
        <mxCell id="ce1c28iE4nzaZj0vCjUd-18" value="Инициатор и получатель становятся друг у друга в друзьях.&lt;br&gt;&lt;br&gt;Подтвержденные запросы не влияют на показ списка друзей" style="text;html=1;strokeColor=none;fillColor=none;align=right;verticalAlign=top;whiteSpace=wrap;rounded=0;spacing=10;fontStyle=2" parent="WIyWlLk6GJQsqaUBKTNV-1" vertex="1">
          <mxGeometry x="40" y="440" width="160" height="130" as="geometry" />
        </mxCell>
        <mxCell id="ce1c28iE4nzaZj0vCjUd-19" value="" style="endArrow=none;html=1;rounded=0;" parent="WIyWlLk6GJQsqaUBKTNV-1" source="ce1c28iE4nzaZj0vCjUd-6" target="ce1c28iE4nzaZj0vCjUd-18" edge="1">
          <mxGeometry width="50" height="50" relative="1" as="geometry">
            <mxPoint x="529" y="780" as="sourcePoint" />
            <mxPoint x="479" y="600" as="targetPoint" />
          </mxGeometry>
        </mxCell>
        <mxCell id="ce1c28iE4nzaZj0vCjUd-20" value="" style="endArrow=none;html=1;rounded=0;" parent="WIyWlLk6GJQsqaUBKTNV-1" source="ce1c28iE4nzaZj0vCjUd-21" target="Wa4zjlMW-Ga0Yt3BIg9S-70" edge="1">
          <mxGeometry width="50" height="50" relative="1" as="geometry">
            <mxPoint x="779" y="300" as="sourcePoint" />
            <mxPoint x="289" y="580" as="targetPoint" />
          </mxGeometry>
        </mxCell>
        <mxCell id="ce1c28iE4nzaZj0vCjUd-21" value="&lt;div&gt;В интерфейсе список запросов и список друзей не различаются: когда инициатор направляет получателю запрос определенного типа, получатель появляется у отправителя и получателя в списке соответсвующего типа, в статусе &quot;ожидание ответа&quot;.&lt;/div&gt;&lt;div&gt;&lt;br&gt;&lt;/div&gt;&lt;div&gt;Пользователю можно направить только один запрос.&lt;/div&gt;" style="text;html=1;strokeColor=none;fillColor=none;align=right;verticalAlign=top;whiteSpace=wrap;rounded=0;spacing=10;fontStyle=2" parent="WIyWlLk6GJQsqaUBKTNV-1" vertex="1">
          <mxGeometry x="79" y="214" width="241" height="200" as="geometry" />
        </mxCell>
        <mxCell id="ce1c28iE4nzaZj0vCjUd-22" value="Снять&lt;br&gt;блокировку" style="endArrow=classic;html=1;rounded=0;" parent="WIyWlLk6GJQsqaUBKTNV-1" source="ce1c28iE4nzaZj0vCjUd-37" edge="1">
          <mxGeometry width="50" height="50" relative="1" as="geometry">
            <mxPoint x="184" y="680" as="sourcePoint" />
            <mxPoint x="120" y="760" as="targetPoint" />
            <mxPoint as="offset" />
          </mxGeometry>
        </mxCell>
        <mxCell id="ce1c28iE4nzaZj0vCjUd-23" value="Отправить&amp;nbsp;&lt;br&gt;запрос" style="endArrow=classic;html=1;rounded=0;" parent="WIyWlLk6GJQsqaUBKTNV-1" source="ce1c28iE4nzaZj0vCjUd-37" edge="1">
          <mxGeometry width="50" height="50" relative="1" as="geometry">
            <mxPoint x="216" y="680" as="sourcePoint" />
            <mxPoint x="280" y="760" as="targetPoint" />
            <mxPoint as="offset" />
          </mxGeometry>
        </mxCell>
        <mxCell id="ce1c28iE4nzaZj0vCjUd-24" value="Да" style="endArrow=classic;html=1;rounded=0;exitX=0;exitY=0.5;exitDx=0;exitDy=0;entryX=1;entryY=0.5;entryDx=0;entryDy=0;" parent="WIyWlLk6GJQsqaUBKTNV-1" source="Wa4zjlMW-Ga0Yt3BIg9S-39" target="ce1c28iE4nzaZj0vCjUd-25" edge="1">
          <mxGeometry width="50" height="50" relative="1" as="geometry">
            <mxPoint x="510" y="330" as="sourcePoint" />
            <mxPoint x="280" y="160" as="targetPoint" />
          </mxGeometry>
        </mxCell>
        <mxCell id="ce1c28iE4nzaZj0vCjUd-25" value="Сообщение о невозможности&lt;br&gt;отправить запрос" style="shape=parallelogram;perimeter=parallelogramPerimeter;whiteSpace=wrap;html=1;fixedSize=1;" parent="WIyWlLk6GJQsqaUBKTNV-1" vertex="1">
          <mxGeometry x="120" y="120" width="160" height="80" as="geometry" />
        </mxCell>
        <mxCell id="ce1c28iE4nzaZj0vCjUd-28" value="&lt;div&gt;В интерфейсе для списка у получателя ингициатор болнн не показывается, у инициатора остается в статусе &quot;отказан&quot;.&lt;/div&gt;" style="text;html=1;strokeColor=none;fillColor=none;align=left;verticalAlign=top;whiteSpace=wrap;rounded=0;spacing=10;fontStyle=2" parent="WIyWlLk6GJQsqaUBKTNV-1" vertex="1">
          <mxGeometry x="719.5" y="440" width="200.5" height="100" as="geometry" />
        </mxCell>
        <mxCell id="ce1c28iE4nzaZj0vCjUd-29" value="" style="endArrow=none;html=1;rounded=0;entryX=0;entryY=0.5;entryDx=0;entryDy=0;" parent="WIyWlLk6GJQsqaUBKTNV-1" source="ce1c28iE4nzaZj0vCjUd-8" edge="1">
          <mxGeometry width="50" height="50" relative="1" as="geometry">
            <mxPoint x="710" y="560" as="sourcePoint" />
            <mxPoint x="720" y="490" as="targetPoint" />
          </mxGeometry>
        </mxCell>
        <mxCell id="ce1c28iE4nzaZj0vCjUd-30" value="Отменить&lt;br&gt;запрос" style="endArrow=classic;html=1;rounded=0;" parent="WIyWlLk6GJQsqaUBKTNV-1" source="ce1c28iE4nzaZj0vCjUd-8" target="ce1c28iE4nzaZj0vCjUd-32" edge="1">
          <mxGeometry width="50" height="50" relative="1" as="geometry">
            <mxPoint x="-30" y="530" as="sourcePoint" />
            <mxPoint x="650" y="340" as="targetPoint" />
          </mxGeometry>
        </mxCell>
        <mxCell id="ce1c28iE4nzaZj0vCjUd-31" value="Отменить&lt;br&gt;запрос" style="endArrow=classic;html=1;rounded=0;entryX=0;entryY=0.5;entryDx=0;entryDy=0;" parent="WIyWlLk6GJQsqaUBKTNV-1" source="Wa4zjlMW-Ga0Yt3BIg9S-70" target="ce1c28iE4nzaZj0vCjUd-32" edge="1">
          <mxGeometry width="50" height="50" relative="1" as="geometry">
            <mxPoint x="449" y="490" as="sourcePoint" />
            <mxPoint x="650" y="320" as="targetPoint" />
            <mxPoint as="offset" />
          </mxGeometry>
        </mxCell>
        <mxCell id="ce1c28iE4nzaZj0vCjUd-32" value="Запрос: Отменен" style="rounded=1;whiteSpace=wrap;html=1;fillColor=#dae8fc;strokeColor=#6c8ebf;" parent="WIyWlLk6GJQsqaUBKTNV-1" vertex="1">
          <mxGeometry x="681" y="280" width="160" height="40" as="geometry" />
        </mxCell>
        <mxCell id="ce1c28iE4nzaZj0vCjUd-33" value="&lt;div&gt;Отмененные запросы не показываются в списке&lt;/div&gt;" style="text;html=1;strokeColor=none;fillColor=none;align=left;verticalAlign=top;whiteSpace=wrap;rounded=0;spacing=10;fontStyle=2" parent="WIyWlLk6GJQsqaUBKTNV-1" vertex="1">
          <mxGeometry x="878" y="240" width="160" height="80" as="geometry" />
        </mxCell>
        <mxCell id="ce1c28iE4nzaZj0vCjUd-34" value="" style="endArrow=none;html=1;rounded=0;entryX=0;entryY=0.5;entryDx=0;entryDy=0;" parent="WIyWlLk6GJQsqaUBKTNV-1" source="ce1c28iE4nzaZj0vCjUd-32" target="ce1c28iE4nzaZj0vCjUd-33" edge="1">
          <mxGeometry width="50" height="50" relative="1" as="geometry">
            <mxPoint x="838" y="280" as="sourcePoint" />
            <mxPoint x="888" y="230" as="targetPoint" />
          </mxGeometry>
        </mxCell>
        <mxCell id="ce1c28iE4nzaZj0vCjUd-35" value="&lt;font style=&quot;font-size: 12px;&quot;&gt;Инициатор становится заблокированным у получателя:&lt;/font&gt;&lt;div&gt;&lt;font style=&quot;font-size: 12px;&quot;&gt;Link.linkType ==&amp;nbsp;&lt;span style=&quot;background-color: rgb(255, 255, 255); color: rgb(8, 8, 8); font-family: &amp;quot;JetBrains Mono&amp;quot;, monospace;&quot;&gt;blocked&lt;/span&gt;&lt;/font&gt;&lt;div&gt;&lt;font style=&quot;font-size: 12px;&quot;&gt;Link.&lt;span style=&quot;background-color: initial;&quot;&gt;confirmState ==&amp;nbsp;&lt;/span&gt;&lt;span style=&quot;background-color: rgb(255, 255, 255); color: rgb(8, 8, 8); font-family: &amp;quot;JetBrains Mono&amp;quot;, monospace;&quot;&gt;commited&lt;/span&gt;&lt;/font&gt;&lt;/div&gt;&lt;/div&gt;" style="text;html=1;strokeColor=none;fillColor=none;align=left;verticalAlign=top;whiteSpace=wrap;rounded=0;spacing=10;fontStyle=2" parent="WIyWlLk6GJQsqaUBKTNV-1" vertex="1">
          <mxGeometry x="321" y="600" width="230" height="90" as="geometry" />
        </mxCell>
        <mxCell id="ce1c28iE4nzaZj0vCjUd-36" value="" style="endArrow=none;html=1;rounded=0;" parent="WIyWlLk6GJQsqaUBKTNV-1" source="ce1c28iE4nzaZj0vCjUd-37" target="ce1c28iE4nzaZj0vCjUd-35" edge="1">
          <mxGeometry width="50" height="50" relative="1" as="geometry">
            <mxPoint x="280" y="666.6390041493776" as="sourcePoint" />
            <mxPoint x="381" y="800" as="targetPoint" />
          </mxGeometry>
        </mxCell>
        <mxCell id="ce1c28iE4nzaZj0vCjUd-37" value="Запрос: Заблокирован" style="rounded=1;whiteSpace=wrap;html=1;fillColor=#dae8fc;strokeColor=#6c8ebf;" parent="WIyWlLk6GJQsqaUBKTNV-1" vertex="1">
          <mxGeometry x="122" y="640" width="160" height="40" as="geometry" />
        </mxCell>
        <mxCell id="ce1c28iE4nzaZj0vCjUd-43" value="" style="endArrow=none;html=1;rounded=0;" parent="WIyWlLk6GJQsqaUBKTNV-1" source="ce1c28iE4nzaZj0vCjUd-40" edge="1">
          <mxGeometry width="50" height="50" relative="1" as="geometry">
            <mxPoint x="490" y="430" as="sourcePoint" />
            <mxPoint x="490" y="400" as="targetPoint" />
          </mxGeometry>
        </mxCell>
        <mxCell id="ce1c28iE4nzaZj0vCjUd-41" value="" style="endArrow=none;html=1;rounded=0;" parent="WIyWlLk6GJQsqaUBKTNV-1" target="ce1c28iE4nzaZj0vCjUd-39" edge="1">
          <mxGeometry width="50" height="50" relative="1" as="geometry">
            <mxPoint x="600" y="280" as="sourcePoint" />
            <mxPoint x="610" y="190" as="targetPoint" />
          </mxGeometry>
        </mxCell>
        <mxCell id="ce1c28iE4nzaZj0vCjUd-39" value="Выполняется инициатором" style="text;html=1;align=center;verticalAlign=middle;whiteSpace=wrap;rounded=0;fontStyle=2" parent="WIyWlLk6GJQsqaUBKTNV-1" vertex="1">
          <mxGeometry x="560" y="200" width="120" height="40" as="geometry" />
        </mxCell>
        <mxCell id="ce1c28iE4nzaZj0vCjUd-40" value="Выполняется получателем" style="text;html=1;align=center;verticalAlign=middle;whiteSpace=wrap;rounded=0;fontStyle=2" parent="WIyWlLk6GJQsqaUBKTNV-1" vertex="1">
          <mxGeometry x="410" y="430" width="80" height="40" as="geometry" />
        </mxCell>
      </root>
    </mxGraphModel>
  </diagram>
</mxfile>
